<?xml version="1.0" encoding="UTF-8"?>
<!-- Created with Inkscape (http://www.inkscape.org/) -->
<svg width="210mm" height="297mm" version="1.1" viewBox="0 0 210 297" xmlns="http://www.w3.org/2000/svg" xmlns:cc="http://creativecommons.org/ns#" xmlns:dc="http://purl.org/dc/elements/1.1/" xmlns:rdf="http://www.w3.org/1999/02/22-rdf-syntax-ns#">
 <metadata>
  <rdf:RDF>
   <cc:Work rdf:about="">
    <dc:format>image/svg+xml</dc:format>
    <dc:type rdf:resource="http://purl.org/dc/dcmitype/StillImage"/>
    <dc:title/>
   </cc:Work>
  </rdf:RDF>
 </metadata>
 <path d="m110.22 238.61c-8.7259-2.334-16.619-5.8619-25.346-11.328-2.8068-1.7581-5.2053-3.1966-5.3299-3.1966-0.37229 0-12.182-7.2369-19.931-12.214-14.795-9.5016-23.099-11.992-31.23-9.3667-1.6623 0.53686-3.7952 1.749-4.7398 2.6936-1.5279 1.5279-1.6964 2.0415-1.5265 4.6531 0.21694 3.3336-0.70865 4.0664-2.8215 2.234-4.3156-3.7429-5.224-11.91-2.0814-18.715 2.0487-4.4358 5.2753-8.2413 8.2931-9.7808 1.4439-0.7366 2.7956-2.2141 4.2326-4.6265 1.1612-1.9494 2.1113-3.6807 2.1113-3.8474 0-0.16667 0.56102-1.0909 1.2467-2.0539 1.2196-1.7127 1.2382-2.0422 0.85813-15.127-0.21371-7.3568-0.54811-15.093-0.7431-17.191-0.33941-3.6521-0.43417-3.8436-2.2214-4.4899-2.46-0.88955-6.3606-4.8835-7.9246-8.1143-1.8624-3.8473-2.1353-10.604-0.57095-14.14 1.2725-2.8768 2.9932-3.67 2.9932-1.3799 0 1.9075 1.5915 3.8881 3.1242 3.8881 3.2052 0 4.7395-5.1545 4.2179-14.17-0.555-9.5941-3.3823-16.161-7.982-18.54-2.464-1.2742-5.76-0.23737-8.6226 2.7124-1.3261 1.3665-2.5394 2.1589-2.933 1.9157-1.073-0.66318-0.1866-5.7702 1.7021-9.8063 2.0922-4.4709 5.0994-7.858 9.1025-10.252 2.5411-1.5199 2.9508-1.9812 2.3754-2.6744-0.39929-0.48101-0.69534-2.6068-0.69534-4.9927 0-3.797 0.23496-4.6242 2.7264-9.599 2.1786-4.35 4.0805-6.9548 9.4652-12.963 7.2609-8.1014 12.016-14.757 12.953-18.13 1.3673-4.9225 0.187-7.8328-3.4735-8.5649-2.6546-0.53093-2.2064-2.1477 1.0302-3.7163 2.181-1.057 3.7606-1.3384 7.6634-1.365 4.4053-0.03011 5.2014 0.13729 7.6618 1.6109 3.4542 2.069 7.1876 6.2685 8.0085 9.0086 0.34602 1.1549 0.54042 4.0217 0.43199 6.3705l-0.19716 4.2707 19.375-0.3802c10.656-0.20911 29.425-0.38062 41.709-0.38112l22.333-9.28e-4 0.35443-2.5859c0.55523-4.0508 3.3587-9.5554 6.5191-12.8 2.2658-2.3262 3.6984-3.2214 6.8148-4.2585 5.3222-1.7711 10.106-1.2249 10.173 1.1616 5e-3 0.17279-0.83701 0.56319-1.8708 0.86755-2.6017 0.76593-5.0312 5.2144-5.0403 9.2289-8e-3 3.4427 1.2946 5.9596 6.2177 12.016 6.9665 8.5698 11.623 16.023 13.969 22.361 3.1248 8.4419 1.648 19.937-3.2899 25.607-0.96313 1.1059-4.6568 2.4979-5.1964 1.9582-0.19123-0.19124-2.8e-4 -0.99685 0.42434-1.7902 1.0466-1.9557 0.9699-4.2105-0.22923-6.7366-3.6024-7.5889-12.278-11.85-23.15-11.371l-4.005 0.17652 2.559 1.7232c4.002 2.6949 8.6319 6.7306 8.6319 7.5241 0 0.39624-1.0051 1.3856-2.2336 2.1985-3.0973 2.0497-3.6142 4.525-3.9864 19.09-0.26394 10.329-0.4519 12.212-1.3309 13.329-0.56295 0.71566-3.7839 2.564-7.1576 4.1073-6.167 2.8212-7.4444 3.7031-3.7611 2.5965 7.3279-2.2015 11.7-1.5259 15.643 2.4172 1.952 1.952 5.7199 8.2726 6.0602 10.166 0.068 0.37865 0.43304 1.6256 0.81107 2.7711 0.37804 1.1455 0.53546 2.4784 0.34982 2.9622-0.30074 0.78372-0.47809 0.78112-1.6273-0.0238-3.2635-2.2858-6.9691 0.26522-8.3597 5.7551-1.189 4.6941-1.6844 22.79-0.82588 30.167 1.0034 8.6216 4.7348 15.038 9.4573 16.261 2.8639 0.74211 2.7391 2.2311-0.25613 3.056-15.871 4.3707-31.182 11.632-38.785 18.394-3.4568 3.0743-4.1685 6.5499-2.2199 10.841 2.093 4.609 5.9767 5.891 10.253 3.3848 2.5753-1.5092 2.7467-1.536 3.4735-0.54207 1.6381 2.2403-0.87249 10.27-4.4995 14.39-4.4091 5.009-10.79 7.6365-19.751 8.133-4.1099 0.22772-6.2596 0.0473-9.3804-0.78748zm16.194-2.588c7.3553-1.9677 12.848-6.6599 14.532-12.413 0.49572-1.6936 0.80377-3.1769 0.68455-3.2961-0.11922-0.11922-1.3084 0.0603-2.6426 0.39898-6.6931 1.6989-12.271-3.4495-12.282-11.337-6e-3 -4.0435 1.7989-6.6026 7.663-10.866 7.9454-5.7772 16.925-9.9568 32.69-15.216 0.47147-0.15728 0.0174-0.92877-1.2585-2.1383-5.0299-4.7682-6.7346-11.609-6.7939-27.263-0.0442-11.668 0.22218-14.864 1.6694-20.032 1.1384-4.0653 4.3643-7.5188 7.0233-7.5188 0.99174 0 1.8032-0.26598 1.8032-0.59107 0-1.6639-3.629-8.2433-5.6756-10.29-1.7994-1.7994-2.9517-2.4302-5.0014-2.7375-3.2878-0.49303-4.402-0.28092-14.352 2.7321-5.6078 1.6981-8.1487 2.2312-8.5799 1.8001-0.43113-0.43113-0.0398-1.0494 1.3215-2.0877 2.7562-2.1022 13.377-7.9949 17.922-9.9435 4.6007-1.9725 4.5313-1.7793 4.5381-12.645 6e-3 -9.0557 0.85365-17.193 2.0284-19.465 0.46865-0.90628 1.4113-2.0395 2.0948-2.5182l1.2427-0.87043-1.8856-1.6227c-1.0371-0.8925-4.0023-3.0715-6.5893-4.8423-2.587-1.7708-4.7037-3.5926-4.7037-4.0486 0-0.68726 1.6356-0.82532 9.5642-0.80728l9.5642 0.02176 4.3912 2.0854c7.0327 3.3398 11.034 7.8008 12.355 13.776l0.44775 2.0243 1.6094-3.3972c3.2988-6.9632 2.7616-15.215-1.5465-23.754-2.7849-5.52-5.293-9.2499-11.497-17.097-5.2776-6.6755-6.8495-9.8684-6.857-13.928-5e-3 -2.5809 0.36572-3.8809 1.8403-6.4582l1.8462-3.2269-2.7886 0.73563c-3.8055 1.0039-4.9173 1.6731-7.1899 4.3282-2.9005 3.3886-4.6308 7.2865-5.0554 11.389-0.20795 2.0091-0.49845 3.7733-0.64554 3.9204-0.1471 0.1471-19.71 0.45645-43.473 0.68744-35.073 0.34094-43.376 0.27851-44.111-0.33166-0.73895-0.61327-0.83611-1.5194-0.52778-4.9219 0.46112-5.0887-0.28582-7.6759-3.1226-10.816-3.0816-3.411-6.031-4.7218-10.57-4.698-2.0926 0.01098-4.3049 0.31025-4.9161 0.66504-0.61126 0.35478-0.78223 0.65298-0.37993 0.66265 1.3424 0.03228 3.0235 3.6453 3.0258 6.5028 4e-3 4.7383-2.8821 10.406-8.6407 16.97-1.1313 1.2895-2.7076 3.1117-3.5029 4.0492-0.79526 0.93753-3.2037 3.7308-5.352 6.2072-4.1194 4.7485-7.6325 11.233-8.2804 15.285-0.44891 2.8073 0.53598 6.2005 2.1222 7.3116 1.4704 1.0299 0.8479 2.6855-1.0097 2.6855-3.6262 0-9.0027 4.368-11.545 9.3793-2.114 4.1677-1.913 4.6706 1.2993 3.2497 6.5742-2.9081 12.583 1.9464 15.285 12.348 1.2543 4.8295 1.4862 13.737 0.47965 18.43-1.17 5.4555-5.551 8.2879-8.8298 5.7088-0.77749-0.61158-1.6027-1.112-1.8339-1.112-0.87221 0 0.16321 7.8525 1.3346 10.121 1.5193 2.9429 5.0231 6.2994 7.7372 7.4119 1.9274 0.79009 2.135 1.1025 2.4357 3.6663 0.53725 4.5814 1.0118 15.512 1.0772 24.812l0.0612 8.7066-2.4964 4.3067c-3.6812 6.3509-5.2852 8.6445-6.0451 8.6445-1.2179 0-6.6094 5.431-8.0382 8.0972-2.2754 4.2459-2.9289 9.9407-1.5286 13.321l0.73256 1.7686 0.99601-2.195c1.1838-2.6089 3.3066-4.2534 7.1868-5.5675 3.2098-1.087 9.6755-1.2493 13.615-0.34156 5.2245 1.2039 14.696 6.2463 25.467 13.558 2.3858 1.6196 6.8103 4.3446 9.8323 6.0557 3.022 1.711 7.4653 4.337 9.874 5.8354 6.4575 4.0172 15.769 8.3863 21.358 10.021 5.7005 1.6676 14.044 1.9839 18.797 0.71241zm-12.146-2.2974c-3.496-0.7309-7.4438-2.5529-16.484-7.6075-2.7039-1.5119-6.3476-3.5385-8.0972-4.5036-1.7496-0.96508-6.044-3.371-9.5431-5.3465-3.4991-1.9755-8.1839-4.5812-10.411-5.7905-2.2267-1.2093-9.6391-5.3062-16.472-9.1043-14.478-8.0475-16.909-9.0973-21.066-9.0973-2.8492 0-5.3852 1.1264-6.7231 2.986-0.16745 0.23276-0.64746 0.2112-1.0667-0.0479-1.3111-0.81029 0.68274-3.6755 4.8204-6.9271 2.0792-1.634 3.7804-3.1777 3.7804-3.4304 0-0.25276 0.45547-0.96822 1.0122-1.5899s2.2184-2.5641 3.6928-4.3165l2.6806-3.1861 0.2181-22.421 0.21811-22.421-1.4528-0.30759c-5.5238-1.1695-9.8392-4.9196-9.8392-8.5504v-1.7072l1.3013 1.1853c3.1944 2.9096 6.623 3.1089 9.0494 0.52608 1.2723-1.3543 1.2805-1.4903 1.1046-18.354l-0.17715-16.99-1.6211-3.3013c-1.7844-3.6338-4.9664-6.535-8.5044-7.754-1.8686-0.64379-2.663-0.63957-4.8743 0.02591-2.9684 0.89334-3.7723 0.43131-2.0156-1.1584 0.79948-0.72352 2.346-1.1386 4.8316-1.2969 8.8014-0.56043 19.885 5.8502 23.847 13.793 0.72724 1.4578 0.71897 1.8748-0.0673 3.3954-1.2088 2.3376-1.1989 6.9165 0.016 7.3827 0.50182 0.19256 1.2984-0.0359 1.7701-0.50762 0.87902-0.87902 1.235-5.0492 0.5286-6.1922-1.5768-2.5513 6.3097-7.2226 12.965-7.6793 2.0842-0.14304 2.6242 0.01857 2.7897 0.83478 0.11622 0.5733-0.14017 1.0121-0.59133 1.0121-1.1389 0-4.1613 3.3446-5.5754 6.1696-1.8369 3.6698-2.296 8.6663-2.6481 28.822-0.17781 10.179-0.48872 25.716-0.69091 34.526l-0.36762 16.019-4.4017 2.5713c-4.587 2.6796-12.788 8.9013-12.788 9.7017 0 0.25386 1.1672 0.38916 2.5937 0.30066 7.5909-0.47093 16.575 2.2865 23.522 7.2199 0.84436 0.59957 1.8204 1.0901 2.1689 1.0901 0.34853 0 0.63368 0.20603 0.63368 0.45786s0.84587 0.85139 1.8797 1.3324c1.5664 0.7287 14.685 8.3385 20.966 12.162 3.3186 2.02 6.1863 3.4787 6.4064 3.2586 0.1218-0.12181 0.0592-1.9596-0.13922-4.084l-0.36069-3.8625-8.737-5.4168c-14.597-9.0501-19.62-12.077-22.039-13.282-2.1183-1.0551-5.1926-1.3923-8.075-0.88565-3.8305 0.67325 1.7889-6.2336 6.1974-7.6172 1.3508-0.42396 2.6456-0.92823 2.8774-1.1206 0.2318-0.19239 0.4396-8.8546 0.46178-19.249 0.0341-15.986-0.0977-19.167-0.85522-20.631-1.6281-3.1484-2.5417-2.3693 12.985-11.074 3.022-1.6941 7.6497-4.3323 10.284-5.8626 2.6341-1.5303 4.9765-2.7837 5.2053-2.7853 0.22882-2e-3 1.118-0.58718 1.9759-1.3013l1.5599-1.2985 0.40167-19.52c0.46214-22.458 1.0715-20.609-5.836-17.71-5.1641 2.1677-4.7354 0.67079-5.1677 18.046-0.36072 14.499-0.48711 14.893-5.6156 17.491-4.4985 2.2796-17.909 6.7757-18.486 6.198-0.2969-0.29689 0.43136-1.5234 1.7341-2.9204l2.2459-2.4085 0.41516-14.626c0.60167-21.196 0.33466-27.261-1.351-30.684-0.96219-1.9539-2.1104-3.197-3.9475-4.2736-2.8911-1.6943-2.7156-2.3887 0.90831-3.5948 6.0649-2.0185 14.47 0.5108 21.105 6.3508l2.6773 2.3566 2.1635-1.288c1.1899-0.70838 3.8552-1.8629 5.9228-2.5656l3.7594-1.2776v-7.99l-27.16-0.15039c-30.115-0.16675-31.006-0.07973-35.645 3.481-3.5069 2.6914-4.7958 4.6736-4.8894 7.5194-0.11309 3.438-0.15871 3.5486-1.131 2.7416-1.1268-0.9352-1.1518-6.8303-0.0443-10.479 1.8264-6.0177 4.6408-9.9283 13.957-19.393 8.2592-8.3912 10.271-11.301 10.558-15.271 0.17585-2.4311 3e-3 -3.4631-0.69576-4.1622-1.279-1.279-1.2251-2.8152 0.0825-2.3542 1.5818 0.55766 4.1056 3.701 5.1437 6.4064 0.9254 2.4118 0.87058 7.0356-0.12338 10.407l-0.38367 1.3013 12.936 4.97e-4c7.1149 2.74e-4 29.51 0.17292 49.767 0.38367l36.831 0.38317-0.56704-2.5237c-1.1594-5.1603 1.9943-15.016 4.8049-15.016 1.2877 0 1.2993 0.23548 0.10176 2.0632-2.0713 3.1612-0.0424 10.671 4.114 15.228 9.1402 10.02 14.183 17.183 15.915 22.607 1.4544 4.5526 1.6492 12.733 0.30316 12.733-0.4711 0-1.0286-0.71573-1.2388-1.5905-0.70096-2.9164-2.4089-5.6678-5.0021-8.0582-5.5586-5.1237-6.1826-5.2282-34.111-5.7134l-23.569-0.40939v6.3588l4.4824 0.69142c5.1844 0.79971 13.355 3.0088 16.666 4.506 4.328 1.957 10.082 5.6128 10.397 6.6058 0.17364 0.54709-0.0862 1.9565-0.57735 3.1321-0.71786 1.7181-0.89305 4.7632-0.89305 15.523v13.386l-3.0364 1.7728c-1.67 0.97502-8.6717 5.0886-15.559 9.1413l-12.523 7.3686-0.21954 2.3021c-0.12074 1.2661-0.11203 2.4096 0.0194 2.541 0.13139 0.13139 1.3722-0.42527 2.7573-1.237 4.2317-2.48 11.21-3.734 11.21-2.0146 0 0.21572-1.2387 1.317-2.7527 2.4473-3.3671 2.5138-7.7303 8.8722-9.3138 13.573-1.9886 5.9032-2.4726 10.372-2.8057 25.905l-0.32099 14.97 3.6926-2.1175c2.0309-1.1646 4.018-2.3159 4.4156-2.5584 0.55843-0.3406 0.71898-5.4374 0.7055-22.396l-0.0175-21.955 2.8025-2.6027c5.0426-4.6831 12.422-7.638 20.946-8.3872 5.4525-0.47924 6.1454 0.25459 3.0059 3.1835-4.7569 4.438-4.7174 4.1878-4.7028 29.784 0.0119 20.865 0.0935 22.708 1.0886 24.581 0.59166 1.1134 1.762 2.6174 2.6008 3.3424 0.83879 0.72498 1.3974 1.5248 1.2413 1.7774-0.31435 0.50863-2.9112 1.8144-22.659 11.394l-13.542 6.5689-0.13804 6.5326c-0.2256 10.675-0.10755 12.174 1.154 14.645 0.84285 1.651 1.9703 2.7187 3.8752 3.6701 3.0845 1.5405 4.5842 1.365 7.2088-0.84341 1.4833-1.2482 1.8354-1.3481 2.1216-0.60239 0.18871 0.49176 0.0575 1.7596-0.29162 2.8173-2.0311 6.1544-11.391 9.6852-20.581 7.7639zm-12.005-90.402-0.14056-10.49-4.415 2.5509-4.415 2.5509-0.37306 13.434c-0.20518 7.3887-0.51467 14.873-0.68774 16.633-0.31024 3.1533-0.28752 3.2129 1.607 4.2224 1.057 0.56314 3.2231 1.7784 4.8136 2.7005l2.8918 1.6766 0.42974-11.393c0.23636-6.2664 0.3665-16.114 0.28919-21.884zm26.991-47.059 5.3674-2.8935 0.3834-7.951c0.34599-7.1751 0.28418-8.0279-0.63337-8.7396-1.4039-1.0889-7.6141-3.982-9.5477-4.448l-1.5905-0.38328-0.0703 11.485c-0.0386 6.317-0.1159 12.461-0.17164 13.654-0.0558 1.1929 0.12292 2.1689 0.39703 2.1689s2.9137-1.3021 5.8657-2.8935zm-75.425-17.009c0-0.44917-1.6519-2.4849-3.6709-4.5238-3.4017-3.4354-5.5802-4.7192-10.933-6.443-1.164-0.37486-1.367-2.9991-0.39675-5.1287 0.82571-1.8123 5.487-4.9231 8.9834-5.9953 1.5599-0.47836 5.107-1.0236 7.8826-1.2116 4.5287-0.30677 5.0878-0.23387 5.4503 0.71071 0.29367 0.7653-0.10158 1.4745-1.4483 2.5989l-1.8522 1.5463 1.7886 0.05086c5.0143 0.14257 9.1945 4.9683 9.4028 10.855l0.12034 3.4009-3.076 0.45487c-3.4144 0.50491-8.3815 2.4563-9.4116 3.6974-0.86914 1.0473-2.8392 1.0386-2.8392-0.0125zm4.9161-4.0861c1.5905-0.78208 4.1248-1.5936 5.6317-1.8033 2.5881-0.36026 2.7219-0.46538 2.4161-1.8984-0.71078-3.3311-2.2076-5.8778-4.1168-7.0043-2.3723-1.3997-4.9173-1.4917-6.8177-0.24655-1.4395 0.9432-2.6077 0.70662-2.6077-0.5281 0-0.38454 0.66005-1.6705 1.4668-2.8577l1.4668-2.1586h-2.2294c-4.9063 0-11.594 2.975-12.844 5.7138-0.34543 0.75684-0.55324 1.4302-0.4618 1.4964 0.0914 0.06615 1.9399 0.93765 4.1076 1.9367 2.8054 1.2929 4.8871 2.8203 7.2227 5.2995 1.8047 1.9157 3.4146 3.4807 3.5774 3.4778 0.16286-0.0029 1.5974-0.64518 3.188-1.4273z" stroke-width=".57837"/>
</svg>
